<svg xmlns="http://www.w3.org/2000/svg" xmlns:xlink="http://www.w3.org/1999/xlink" width="558" height="138" viewBox="0 0 558 138">
    <defs>
        <polygon id="sisal_logo-a" points="0 .357 35.847 .357 35.847 35.669 0 35.669"/>
        <polygon id="sisal_logo-c" points=".668 .151 82.39 .151 82.39 135 .668 135"/>
    </defs>
    <g fill="none" fill-rule="evenodd">
        <g transform="translate(0 -.357)">
            <mask id="sisal_logo-b" fill="#fff">
                <use xlink:href="#sisal_logo-a"/>
            </mask>
            <path fill="#E22118" d="M14.8553,2.0466 C16.1303,2.9336 17.5003,4.1436 18.9173,5.3136 C19.2953,5.6256 20.6513,6.0326 22.1133,5.3526 C22.1133,5.3526 25.1643,3.9526 26.5813,3.3396 C29.9893,1.8756 31.6523,3.0366 30.2563,6.3376 C29.5383,8.0266 27.7403,10.7236 26.9623,11.8266 C26.5083,12.4696 25.9253,13.7506 26.7973,14.5796 C27.6763,15.4126 32.1683,19.0696 33.6223,20.4376 C37.3473,23.9486 36.1883,26.8236 31.6833,26.3736 C30.2533,26.2286 24.1533,25.7976 21.0073,25.1046 C19.8713,24.8516 19.3503,24.8346 18.2913,26.3726 C18.2913,26.3726 15.5573,30.9016 13.2983,33.6216 C10.7393,36.7126 8.0603,36.4626 8.6563,31.7746 C9.0023,29.0406 9.4473,25.0076 9.5793,24.0336 C9.7073,23.0626 9.5023,21.8796 8.4423,21.7366 C7.4513,21.5956 4.8513,21.3336 2.8453,20.8206 C-0.8327,19.8866 -0.6017,18.6026 1.5913,16.2736 C3.1563,14.6116 5.7323,12.9836 7.4353,11.5956 C9.3773,10.0026 9.2323,6.8796 9.2793,4.3946 C9.3743,-0.4504 11.1313,-0.5414 14.8553,2.0466" mask="url(#sisal_logo-b)"/>
        </g>
        <path fill="#B8D431" d="M59.9935,44.0558 C51.0005,47.3058 47.0065,51.2378 55.8755,58.0408 C67.8215,67.2018 81.1795,74.1768 83.9405,76.3268 C88.8135,80.1108 90.3145,81.7908 87.0815,88.0158 C86.5215,89.1048 83.9795,93.2408 83.1065,94.6748 C79.8395,100.0678 76.8545,102.3968 85.8555,107.4718 C90.9645,110.3558 105.1785,116.4508 118.0765,119.4438 C128.1825,121.7908 129.7255,116.7738 125.6575,107.5338 C119.8975,94.4598 112.3975,82.4198 107.8305,75.7678 C102.4115,67.8768 101.5975,67.9218 109.6765,62.1608 C116.4265,57.3478 121.2815,53.7218 126.8495,48.9728 C137.2705,40.0978 131.3905,34.8168 119.5865,35.3328 C106.4105,35.9098 76.5895,38.0548 59.9935,44.0558"/>
        <g transform="translate(4 2.643)">
            <mask id="sisal_logo-d" fill="#fff">
                <use xlink:href="#sisal_logo-c"/>
            </mask>
            <path fill="#00643B" d="M71.4906,71.4694 C69.8186,69.2404 68.0236,67.2584 66.6456,65.4994 C62.0526,62.6364 56.8456,59.2114 51.8756,55.3984 C43.0066,48.5944 47.0006,44.6634 55.9936,41.4124 C57.1116,41.0094 58.2916,40.6234 59.5196,40.2534 C60.1406,39.9064 60.8036,39.5644 61.5616,39.2404 C65.2796,37.6484 72.2626,35.2304 77.3726,32.2864 C83.2736,28.8824 83.3686,27.6534 80.7376,21.7954 C78.8576,17.6064 75.5566,13.0714 72.6906,9.1454 C63.8836,-2.9426 61.6216,-2.2796 56.5456,7.7454 C53.1476,14.4594 47.9986,26.5574 44.7056,33.0394 C43.5326,35.3484 43.1606,35.8544 40.7366,37.0684 C37.1576,38.8654 28.5216,41.0194 23.0116,42.6314 C16.3346,44.5864 9.8506,47.3184 6.0256,49.2484 C-0.1004,52.3344 -2.5474,57.1214 7.3256,62.7574 C15.8846,67.6524 25.2076,71.8024 29.8046,76.0294 C32.9196,78.8914 32.8566,78.8864 31.5466,83.1824 C30.4686,86.7174 22.3596,111.8034 19.5036,123.3934 C16.6996,134.7804 21.1246,138.3234 30.6196,131.6254 C41.8716,123.6824 59.2906,107.3724 71.0186,94.4604 C81.4756,82.9484 78.8866,81.3404 71.4906,71.4694" mask="url(#sisal_logo-d)"/>
        </g>
        <path fill="#FFF" d="M293.3304,87.382 L291.5334,87.001 C282.7624,85.156 277.4634,84.045 277.4634,78.769 C277.4634,73.903 281.9514,71.225 290.0964,71.225 C295.3604,71.225 300.5684,72.75 305.1584,75.636 C306.2924,76.37 307.5664,76.755 308.8564,76.755 C312.6104,76.755 315.6604,73.703 315.6604,69.95 C315.6604,68.238 314.9924,66.59 313.7784,65.312 C309.2634,60.583 300.3894,57.978 288.7894,57.978 C271.1254,57.978 259.7114,66.766 259.7114,80.366 C259.7114,95.834 274.2604,99.084 283.8874,101.235 L285.8214,101.646 C294.6424,103.501 299.9654,104.618 299.9654,110.155 C299.9654,114.927 295.3254,117.556 286.8994,117.556 C280.5154,117.556 274.4634,115.965 269.3944,112.955 L269.1984,112.801 C268.2024,112.233 267.0664,111.934 265.9034,111.934 C262.2244,111.934 259.2344,114.924 259.2344,118.6 C259.2344,120.428 259.9604,122.132 261.2734,123.397 L261.3764,123.529 C266.2524,128.195 275.7544,130.805 288.0604,130.805 C307.2684,130.805 318.7354,122.434 318.7354,108.414 C318.7354,92.902 303.4464,89.58 293.3304,87.382"/>
        <path fill="#00643B" d="M288.0609,130.8048 C275.7539,130.8048 266.2519,128.1958 261.3759,123.5298 L261.2739,123.3968 C259.9599,122.1318 259.2349,120.4278 259.2349,118.5998 C259.2349,114.9238 262.2239,111.9338 265.9039,111.9338 C267.0669,111.9338 268.2029,112.2328 269.1989,112.8018 L269.3949,112.9548 C274.4629,115.9648 280.5149,117.5558 286.8999,117.5558 C295.3259,117.5558 299.9649,114.9278 299.9649,110.1558 C299.9649,104.6178 294.6419,103.5008 285.8219,101.6458 L283.8869,101.2348 C274.2599,99.0838 259.7109,95.8338 259.7109,80.3658 C259.7109,66.7658 271.1249,57.9778 288.7899,57.9778 C300.3889,57.9778 309.2629,60.5828 313.7789,65.3118 C314.9929,66.5908 315.6609,68.2378 315.6609,69.9498 C315.6609,73.7028 312.6109,76.7548 308.8569,76.7548 C307.5669,76.7548 306.2919,76.3698 305.1589,75.6358 C300.5689,72.7498 295.3609,71.2248 290.0959,71.2248 C281.9519,71.2248 277.4629,73.9038 277.4629,78.7688 C277.4629,84.0448 282.7619,85.1558 291.5339,87.0008 L293.3309,87.3818 C303.4469,89.5798 318.7359,92.9018 318.7359,108.4138 C318.7359,122.4338 307.2679,130.8048 288.0609,130.8048"/>
        <path fill="#FFF" d="M239.2298,34.8629 C232.3948,34.8629 228.3188,38.5059 228.3188,44.6089 C228.3188,50.8029 232.3948,54.5029 239.2298,54.5029 C245.9678,54.5029 249.9928,50.8029 249.9928,44.6089 C249.9928,38.4159 246.0688,34.8629 239.2298,34.8629"/>
        <path fill="#00643B" d="M239.2298,54.5026 C232.3948,54.5026 228.3188,50.8026 228.3188,44.6086 C228.3188,38.5056 232.3948,34.8626 239.2298,34.8626 C246.0688,34.8626 249.9928,38.4156 249.9928,44.6086 C249.9928,50.8026 245.9678,54.5026 239.2298,54.5026"/>
        <path fill="#FFF" d="M239.1546,66.0992 C233.9456,66.0992 229.7096,70.3362 229.7096,75.5452 L229.7186,76.9342 L229.7046,121.0782 C229.7096,126.2112 233.9456,130.4492 239.1546,130.4492 C244.3626,130.4492 248.6006,126.2112 248.6006,121.0042 L248.5916,76.9382 L248.6006,75.5412 C248.6006,70.3362 244.3626,66.0992 239.1546,66.0992"/>
        <path fill="#00643B" d="M248.6009,121.004 C248.6009,126.212 244.3629,130.449 239.1549,130.449 C233.9459,130.449 229.7089,126.212 229.7049,121.078 L229.7189,76.935 L229.7089,75.545 C229.7089,70.336 233.9459,66.099 239.1549,66.099 C244.3629,66.099 248.6009,70.336 248.6009,75.541 L248.5909,76.939 L248.6009,121.004 Z"/>
        <path fill="#FFF" d="M374.7093,102.0196 C374.7093,111.6106 367.1983,118.5726 356.8483,118.5726 C349.7923,118.5726 345.2333,114.9826 345.2333,109.4296 C345.2333,101.6666 352.9793,97.9956 370.3483,97.5246 L374.7093,97.3606 L374.7093,102.0196 Z M330.8573,69.3306 C330.1763,70.5456 329.8143,71.9516 329.8143,73.3986 C329.8143,77.9606 333.5263,81.6726 338.0913,81.6726 C340.5983,81.6726 342.8343,80.6376 344.3853,78.7506 C348.0323,74.3376 353.1553,72.0986 359.6113,72.0986 C369.3483,72.0986 374.7093,77.3056 374.7093,86.7586 L374.7093,87.3296 L371.8133,87.3296 C340.6553,87.7676 326.7593,95.0326 326.7593,110.8826 C326.7593,122.9846 335.8893,130.8046 350.0193,130.8046 C360.2313,130.8046 369.0133,126.5516 374.1083,119.1336 L374.9263,117.9396 L375.1393,119.3726 C376.1933,126.4716 380.1703,130.2246 386.6353,130.2246 C390.5943,130.2246 393.5743,128.9646 393.7733,128.4326 L393.7693,86.4696 C393.7693,67.4676 382.7153,57.8326 360.9153,57.8326 C346.1203,57.8326 334.8863,62.1306 330.8573,69.3306 L330.8573,69.3306 Z"/>
        <path fill="#00643B" d="M374.7093 102.0196C374.7093 111.6106 367.1983 118.5726 356.8483 118.5726 349.7923 118.5726 345.2333 114.9826 345.2333 109.4296 345.2333 101.6666 352.9793 97.9956 370.3483 97.5246L374.7093 97.3606 374.7093 102.0196zM393.7693 86.4696C393.7693 67.4676 382.7153 57.8326 360.9153 57.8326 346.1203 57.8326 334.8863 62.1306 330.8573 69.3306 330.1763 70.5456 329.8143 71.9516 329.8143 73.3986 329.8143 77.9606 333.5263 81.6726 338.0913 81.6726 340.5983 81.6726 342.8343 80.6376 344.3853 78.7506 348.0323 74.3376 353.1553 72.0986 359.6113 72.0986 369.3483 72.0986 374.7093 77.3056 374.7093 86.7586L374.7093 87.3296 371.8133 87.3296C340.6553 87.7676 326.7593 95.0326 326.7593 110.8826 326.7593 122.9846 335.8893 130.8046 350.0193 130.8046 360.2313 130.8046 369.0133 126.5516 374.1083 119.1336L374.9263 117.9396 375.1393 119.3726C376.1933 126.4716 380.1703 130.2246 386.6353 130.2246 390.5943 130.2246 393.5743 128.9646 393.7733 128.4326L393.7693 86.4696zM185.3861 72.6632C175.7521 70.6122 168.7911 69.1302 168.7911 61.4752 168.7911 54.2222 175.2471 49.7152 185.6371 49.7152 191.3791 49.7152 197.2011 51.3392 202.4691 54.4142 203.8301 55.2192 205.3791 55.6602 206.8361 55.6602 211.4731 55.6602 215.2461 51.8882 215.2461 47.2522 215.2461 44.4312 213.8441 41.8072 211.4971 40.2302 207.2051 37.4592 199.1761 34.1482 185.3481 34.1482 163.4471 34.1482 149.2971 45.3312 149.2971 62.6402 149.2971 81.2092 163.7471 86.9672 179.3641 90.4192 180.2641 90.6222 181.1531 90.8142 182.0251 91.0052 191.8311 93.1392 200.3011 94.9812 200.3011 103.1802 200.3011 110.9502 194.0111 115.2302 182.5881 115.2302 175.7191 115.2302 168.5291 113.0802 162.3411 109.1802L161.2881 108.5172C160.1151 107.9092 158.8131 107.5932 157.4661 107.5932 152.8801 107.5932 149.1491 111.3232 149.1491 115.9092 149.1491 118.1892 150.0911 120.3732 151.7401 121.9422L152.0131 122.0992C158.3261 127.7132 169.2361 130.8052 182.7301 130.8052 206.8401 130.8052 220.6691 120.1542 220.6691 101.5842 220.6691 86.9962 210.9931 78.3392 189.2941 73.5112 187.9451 73.2062 186.6411 72.9302 185.3861 72.6632"/>
        <path fill="#FFF" d="M412.7044,34.1666 C408.9954,34.1666 405.9954,35.5556 405.7224,35.9966 L405.7514,120.9746 L405.7324,121.0886 C405.7394,126.2116 409.9754,130.4486 415.1834,130.4486 C420.3924,130.4486 424.6294,126.2116 424.6294,121.0026 L424.6174,49.6316 C424.6174,36.8486 418.1394,34.1666 412.7044,34.1666"/>
        <path fill="#00643B" d="M415.1839,130.4489 C409.9759,130.4489 405.7399,126.2119 405.7329,121.0889 L405.7509,120.9739 L405.7219,35.9959 C405.9959,35.5559 408.9959,34.1669 412.7049,34.1669 C418.1389,34.1669 424.6179,36.8489 424.6179,49.6319 L424.6289,121.0029 C424.6289,126.2119 420.3929,130.4489 415.1839,130.4489"/>
    </g>
</svg>
